<?xml version="1.0" standalone="yes"?>
<svg xmlns="http://www.w3.org/2000/svg" width="1200" height="1200">
<path style="fill:#ffffff; stroke:none;" d="M0 0L0 1200L1200 1200L1200 0L0 0z"/>
<path style="fill:#27b85a; stroke:none;" d="M591 164.464C564.924 169.073 538.877 186.728 515 197.691C441.015 231.663 369.107 273.942 302 319.975C283.555 332.628 264.992 345.064 247 358.371C235.614 366.793 224.335 374.164 219.066 388C215.093 398.431 214.93 410.012 213.831 421C211.898 440.337 210.238 459.628 208.91 479C203.678 555.339 204.616 631.608 207.961 708C209.028 732.371 211.236 756.73 213.834 781C215.356 795.218 215.913 809.697 224.105 822C236.231 840.212 261.439 852.635 279 865.141C327.468 899.657 378.874 930.679 431 959.306C468.99 980.169 507.766 999.387 547 1017.78C566.584 1026.96 587.522 1039.58 610 1035.54C621.439 1033.48 632.516 1027.11 643 1022.31C662.145 1013.54 681.16 1004.67 700 995.247C768.029 961.232 833.696 923.536 897 881.333C914.925 869.383 932.535 857.034 950 844.424C962.725 835.237 975.929 826.467 981.453 811C990.849 784.691 989.185 750.653 991.089 723C996.346 646.668 995.384 570.386 992.039 494C990.972 469.625 988.765 445.275 986.166 421C984.622 406.578 984.646 391.49 976.251 379C963.868 360.577 938.879 348.225 921 335.576C872.916 301.556 822.423 270.827 771 242.14C731.579 220.148 691.241 199.505 650 181.139C631.274 172.799 612.353 160.689 591 164.464z"/>
<path style="fill:#62cc87; stroke:none;" d="M487 354L487 355L490 355L487 354z"/>
<path style="fill:#95ddae; stroke:none;" d="M484 355L485 356L484 355z"/>
<path style="fill:#b3e7c5; stroke:none;" d="M485 355L486 356L485 355z"/>
<path style="fill:#ffffff; stroke:none;" d="M443 431L443 702L443 767C443 773.821 440.537 785.843 447.059 790.258C455.071 795.682 474.536 792 484 792L516 792C520.386 792 526.082 792.908 529.891 790.258C537.648 784.861 534 765.354 534 757L534 676C534 669.74 530.983 652.224 535.603 647.603C540.009 643.197 556.068 646 562 646L636 646C641.943 646 661.368 642.917 664.972 648.318C669.393 654.942 666 673.115 666 681L666 769C661.052 769 655.925 768.612 651 769.105C641.952 770.01 638.572 779.115 644.228 785.999C656.692 801.169 673.993 813.224 688 826.997C693.636 832.539 703.396 845.157 712 844.717C720.64 844.275 730.18 831.682 736 826.015C749.566 812.803 765.281 801.127 777.891 786.999C783.535 780.676 782.746 770.545 772.999 769.189C767.804 768.466 762.239 769 757 769L757 498L757 433C757 426.179 759.463 414.157 752.941 409.742C744.929 404.318 725.464 408 716 408L684 408C679.614 408 673.918 407.092 670.109 409.742C662.352 415.139 666 434.646 666 443L666 524C666 530.26 669.017 547.776 664.397 552.397C659.991 556.803 643.932 554 638 554L564 554C558.057 554 538.632 557.083 535.028 551.682C530.607 545.058 534 526.885 534 519L534 431C538.948 431 544.075 431.388 549 430.895C558.049 429.99 561.428 420.885 555.772 414.001C543.307 398.831 526.007 386.776 512 373.003C506.364 367.461 496.604 354.843 488 355.283C479.36 355.725 469.82 368.318 464 373.985C450.434 387.197 434.719 398.873 422.109 413.001C416.465 419.324 417.254 429.455 427.001 430.811C432.196 431.534 437.761 431 443 431z"/>
<path style="fill:#b3e7c5; stroke:none;" d="M491 355L492 356L491 355z"/>
<path style="fill:#95ddae; stroke:none;" d="M492 355L493 356L492 355z"/>
<path style="fill:#62cc87; stroke:none;" d="M482 356L483 357L482 356M494 356L495 357L494 356z"/>
<path style="fill:#95ddae; stroke:none;" d="M481 357L482 358L481 357M495 357L496 358L495 357M480 358L481 359L480 358M496 358L497 359L496 358z"/>
<path style="fill:#b3e7c5; stroke:none;" d="M479 359L480 360L479 359z"/>
<path style="fill:#95ddae; stroke:none;" d="M497 359L498 360L497 359z"/>
<path style="fill:#b3e7c5; stroke:none;" d="M478 360L479 361L478 360M498 360L499 361L498 360M477 361L478 362L477 361M499 361L500 362L499 361M476 362L477 363L476 362M500 362L501 363L500 362M475 363L476 364L475 363M501 363L502 364L501 363M474 364L475 365L474 364M502 364L503 365L502 364z"/>
<path style="fill:#62cc87; stroke:none;" d="M472 365L473 366L472 365z"/>
<path style="fill:#b3e7c5; stroke:none;" d="M473 365L474 366L473 365M503 365L504 366L503 365z"/>
<path style="fill:#62cc87; stroke:none;" d="M471 366L472 367L471 366z"/>
<path style="fill:#b3e7c5; stroke:none;" d="M504 366L505 367L504 366z"/>
<path style="fill:#62cc87; stroke:none;" d="M505 366L506 367L505 366M470 367L471 368L470 367M506 367L507 368L506 367M469 368L470 369L469 368M507 368L508 369L507 368z"/>
<path style="fill:#95ddae; stroke:none;" d="M468 369L469 370L468 369z"/>
<path style="fill:#62cc87; stroke:none;" d="M508 369L509 370L508 369z"/>
<path style="fill:#95ddae; stroke:none;" d="M467 370L468 371L467 370M509 370L510 371L509 370M466 371L467 372L466 371M510 371L511 372L510 371z"/>
<path style="fill:#b3e7c5; stroke:none;" d="M465 372L466 373L465 372z"/>
<path style="fill:#95ddae; stroke:none;" d="M511 372L512 373L511 372z"/>
<path style="fill:#b3e7c5; stroke:none;" d="M464 373L465 374L464 373z"/>
<path style="fill:#95ddae; stroke:none;" d="M512 373L513 374L512 373z"/>
<path style="fill:#b3e7c5; stroke:none;" d="M463 374L464 375L463 374M513 374L514 375L513 374M462 375L463 376L462 375M514 375L515 376L514 375M461 376L462 377L461 376M515 376L516 377L515 376M460 377L461 378L460 377M516 377L517 378L516 377z"/>
<path style="fill:#62cc87; stroke:none;" d="M458 378L459 379L458 378z"/>
<path style="fill:#b3e7c5; stroke:none;" d="M459 378L460 379L459 378M517 378L518 379L517 378z"/>
<path style="fill:#62cc87; stroke:none;" d="M457 379L458 380L457 379z"/>
<path style="fill:#b3e7c5; stroke:none;" d="M518 379L519 380L518 379z"/>
<path style="fill:#62cc87; stroke:none;" d="M519 379L520 380L519 379M456 380L457 381L456 380M520 380L521 381L520 380M455 381L456 382L455 381M521 381L522 382L521 381z"/>
<path style="fill:#95ddae; stroke:none;" d="M454 382L455 383L454 382z"/>
<path style="fill:#62cc87; stroke:none;" d="M522 382L523 383L522 382z"/>
<path style="fill:#95ddae; stroke:none;" d="M453 383L454 384L453 383M523 383L524 384L523 383M452 384L453 385L452 384M524 384L525 385L524 384M451 385L452 386L451 385M525 385L526 386L525 385z"/>
<path style="fill:#b3e7c5; stroke:none;" d="M450 386L451 387L450 386z"/>
<path style="fill:#95ddae; stroke:none;" d="M526 386L527 387L526 386z"/>
<path style="fill:#b3e7c5; stroke:none;" d="M449 387L450 388L449 387M527 387L528 388L527 387M448 388L449 389L448 388M528 388L529 389L528 388M447 389L448 390L447 389M529 389L530 390L529 389M446 390L447 391L446 390M530 390L531 391L530 390M445 391L446 392L445 391M531 391L532 392L531 391z"/>
<path style="fill:#62cc87; stroke:none;" d="M443 392L444 393L443 392z"/>
<path style="fill:#b3e7c5; stroke:none;" d="M532 392L533 393L532 392z"/>
<path style="fill:#62cc87; stroke:none;" d="M442 393L443 394L442 393M534 393L535 394L534 393M441 394L442 395L441 394M535 394L536 395L535 394M440 395L441 396L440 395M536 395L537 396L536 395z"/>
<path style="fill:#95ddae; stroke:none;" d="M439 396L440 397L439 396z"/>
<path style="fill:#62cc87; stroke:none;" d="M537 396L538 397L537 396z"/>
<path style="fill:#95ddae; stroke:none;" d="M438 397L439 398L438 397M538 397L539 398L538 397M437 398L438 399L437 398M539 398L540 399L539 398z"/>
<path style="fill:#b3e7c5; stroke:none;" d="M436 399L437 400L436 399z"/>
<path style="fill:#95ddae; stroke:none;" d="M540 399L541 400L540 399z"/>
<path style="fill:#b3e7c5; stroke:none;" d="M435 400L436 401L435 400M541 400L542 401L541 400M434 401L435 402L434 401M542 401L543 402L542 401M433 402L434 403L433 402M543 402L544 403L543 402M432 403L433 404L432 403M544 403L545 404L544 403M431 404L432 405L431 404M545 404L546 405L545 404z"/>
<path style="fill:#62cc87; stroke:none;" d="M429 405L430 406L429 405z"/>
<path style="fill:#b3e7c5; stroke:none;" d="M430 405L431 406L430 405M546 405L547 406L546 405z"/>
<path style="fill:#62cc87; stroke:none;" d="M428 406L429 407L428 406z"/>
<path style="fill:#b3e7c5; stroke:none;" d="M547 406L548 407L547 406z"/>
<path style="fill:#62cc87; stroke:none;" d="M548 406L549 407L548 406M427 407L428 408L427 407M549 407L550 408L549 407M674 407L674 408L750 408L726 407L674 407M426 408L427 409L426 408M550 408L551 409L550 408M670 408L671 409L670 408z"/>
<path style="fill:#95ddae; stroke:none;" d="M671 408L672 409L671 408M751 408L752 409L751 408z"/>
<path style="fill:#62cc87; stroke:none;" d="M752 408L753 409L752 408z"/>
<path style="fill:#95ddae; stroke:none;" d="M425 409L426 410L425 409z"/>
<path style="fill:#62cc87; stroke:none;" d="M551 409L552 410L551 409z"/>
<path style="fill:#95ddae; stroke:none;" d="M669 409L670 410L669 409M753 409L754 410L753 409M424 410L425 411L424 410M552 410L553 411L552 410z"/>
<path style="fill:#b3e7c5; stroke:none;" d="M668 410L669 411L668 410M754 410L755 411L754 410z"/>
<path style="fill:#95ddae; stroke:none;" d="M423 411L424 412L423 411M553 411L554 412L553 411M667 411L668 412L667 411z"/>
<path style="fill:#b3e7c5; stroke:none;" d="M755 411L756 412L755 411z"/>
<path style="fill:#95ddae; stroke:none;" d="M422 412L423 413L422 412M554 412L555 413L554 412z"/>
<path style="fill:#62cc87; stroke:none;" d="M666 412L667 413L666 412M756 412L757 413L756 412z"/>
<path style="fill:#b3e7c5; stroke:none;" d="M421 413L422 414L421 413z"/>
<path style="fill:#95ddae; stroke:none;" d="M555 413L556 414L555 413z"/>
<path style="fill:#b3e7c5; stroke:none;" d="M666 413L667 414L666 413M420 414L421 415L420 414M556 414L557 415L556 414z"/>
<path style="fill:#62cc87; stroke:none;" d="M665 414L666 415L665 414M757 414L758 415L757 414z"/>
<path style="fill:#95ddae; stroke:none;" d="M419 415L420 416L419 415M557 415L558 416L557 415M665 415L666 416L665 415M757 415L758 416L757 415z"/>
<path style="fill:#62cc87; stroke:none;" d="M418 416L419 417L418 416z"/>
<path style="fill:#b3e7c5; stroke:none;" d="M665 416L665 553L666 553L666 457C666 445.318 669.508 426.742 665 416M757 416L757 769L758 769L758 519L758 447L757 416M418 417L419 418L418 417z"/>
<path style="fill:#95ddae; stroke:none;" d="M558 417L559 418L558 417z"/>
<path style="fill:#62cc87; stroke:none;" d="M417 419L417 423L418 423L417 419M559 419L559 423L560 423L559 419z"/>
<path style="fill:#b3e7c5; stroke:none;" d="M418 424L419 425L418 424M558 424L559 425L558 424z"/>
<path style="fill:#95ddae; stroke:none;" d="M418 425L419 426L418 425z"/>
<path style="fill:#62cc87; stroke:none;" d="M558 425L559 426L558 425z"/>
<path style="fill:#b3e7c5; stroke:none;" d="M419 426L420 427L419 426M557 426L558 427L557 426z"/>
<path style="fill:#62cc87; stroke:none;" d="M419 427L420 428L419 427M557 427L558 428L557 427z"/>
<path style="fill:#95ddae; stroke:none;" d="M420 428L421 429L420 428z"/>
<path style="fill:#62cc87; stroke:none;" d="M556 428L557 429L556 428M421 429L422 430L421 429z"/>
<path style="fill:#b3e7c5; stroke:none;" d="M554 429L555 430L554 429z"/>
<path style="fill:#62cc87; stroke:none;" d="M555 429L556 430L555 429z"/>
<path style="fill:#95ddae; stroke:none;" d="M423 430L424 431L423 430z"/>
<path style="fill:#b3e7c5; stroke:none;" d="M424 430L425 431L424 430M552 430L553 431L552 430z"/>
<path style="fill:#95ddae; stroke:none;" d="M553 430L554 431L553 430z"/>
<path style="fill:#62cc87; stroke:none;" d="M425 431L425 432L442 432L425 431z"/>
<path style="fill:#b3e7c5; stroke:none;" d="M442 431L442 784L443 784L443 534L443 462L442 431M534 431L534 553L535 553L535 468C535 457.366 538.108 440.789 534 431z"/>
<path style="fill:#62cc87; stroke:none;" d="M535 431L535 432L551 432L535 431z"/>
<path style="fill:#95ddae; stroke:none;" d="M535 553L535 554L665 554C654.734 549.692 637.158 553 626 553L535 553M535 646L535 647L665 647C654.734 642.692 637.158 646 626 646L535 646z"/>
<path style="fill:#b3e7c5; stroke:none;" d="M534 647L534 784L535 784L535 688C535 676.318 538.508 657.742 534 647M665 647L665 769L666 769L666 684C666 673.366 669.108 656.789 665 647z"/>
<path style="fill:#62cc87; stroke:none;" d="M649 768L649 769L665 769L649 768M758 768L758 769L774 769L758 768M646 769L647 770L646 769z"/>
<path style="fill:#b3e7c5; stroke:none;" d="M647 769L648 770L647 769M775 769L776 770L775 769z"/>
<path style="fill:#62cc87; stroke:none;" d="M776 769L777 770L776 769M644 770L645 771L644 770z"/>
<path style="fill:#b3e7c5; stroke:none;" d="M645 770L646 771L645 770z"/>
<path style="fill:#62cc87; stroke:none;" d="M778 770L779 771L778 770M643 771L644 772L643 771M779 771L780 772L779 771M780 772L781 773L780 772z"/>
<path style="fill:#b3e7c5; stroke:none;" d="M642 773L643 774L642 773M780 773L781 774L780 773z"/>
<path style="fill:#62cc87; stroke:none;" d="M641 774L642 775L641 774M781 774L782 775L781 774z"/>
<path style="fill:#b3e7c5; stroke:none;" d="M641 775L642 776L641 775M781 775L782 776L781 775z"/>
<path style="fill:#62cc87; stroke:none;" d="M640 777L640 780L641 780L640 777M782 777L782 781L783 781L782 777z"/>
<path style="fill:#95ddae; stroke:none;" d="M641 782L642 783L641 782z"/>
<path style="fill:#b3e7c5; stroke:none;" d="M781 782L782 783L781 782z"/>
<path style="fill:#95ddae; stroke:none;" d="M442 784L443 785L442 784M534 784L535 785L534 784z"/>
<path style="fill:#62cc87; stroke:none;" d="M642 784L643 785L642 784z"/>
<path style="fill:#95ddae; stroke:none;" d="M780 784L781 785L780 784z"/>
<path style="fill:#62cc87; stroke:none;" d="M442 785L443 786L442 785M534 785L535 786L534 785z"/>
<path style="fill:#b3e7c5; stroke:none;" d="M643 785L644 786L643 785M779 785L780 786L779 785M533 786L534 787L533 786z"/>
<path style="fill:#95ddae; stroke:none;" d="M644 786L645 787L644 786z"/>
<path style="fill:#b3e7c5; stroke:none;" d="M778 786L779 787L778 786z"/>
<path style="fill:#62cc87; stroke:none;" d="M443 787L444 788L443 787M533 787L534 788L533 787M645 787L646 788L645 787z"/>
<path style="fill:#95ddae; stroke:none;" d="M777 787L778 788L777 787z"/>
<path style="fill:#b3e7c5; stroke:none;" d="M444 788L445 789L444 788z"/>
<path style="fill:#95ddae; stroke:none;" d="M532 788L533 789L532 788z"/>
<path style="fill:#62cc87; stroke:none;" d="M646 788L647 789L646 788M776 788L777 789L776 788z"/>
<path style="fill:#b3e7c5; stroke:none;" d="M445 789L446 790L445 789M531 789L532 790L531 789z"/>
<path style="fill:#62cc87; stroke:none;" d="M647 789L648 790L647 789M775 789L776 790L775 789z"/>
<path style="fill:#95ddae; stroke:none;" d="M446 790L447 791L446 790M530 790L531 791L530 790z"/>
<path style="fill:#62cc87; stroke:none;" d="M648 790L649 791L648 790M774 790L775 791L774 790z"/>
<path style="fill:#95ddae; stroke:none;" d="M448 791L449 792L448 791M528 791L529 792L528 791z"/>
<path style="fill:#62cc87; stroke:none;" d="M649 791L650 792L649 791M773 791L774 792L773 791M451 792L451 793L526 793L503 792L451 792M650 792L651 793L650 792M772 792L773 793L772 792M651 793L652 794L651 793z"/>
<path style="fill:#b3e7c5; stroke:none;" d="M652 793L653 794L652 793z"/>
<path style="fill:#62cc87; stroke:none;" d="M771 793L772 794L771 793z"/>
<path style="fill:#b3e7c5; stroke:none;" d="M653 794L654 795L653 794M769 794L770 795L769 794z"/>
<path style="fill:#62cc87; stroke:none;" d="M770 794L771 795L770 794z"/>
<path style="fill:#b3e7c5; stroke:none;" d="M654 795L655 796L654 795M768 795L769 796L768 795M655 796L656 797L655 796M767 796L768 797L767 796M656 797L657 798L656 797M766 797L767 798L766 797M657 798L658 799L657 798M765 798L766 799L765 798M658 799L659 800L658 799M764 799L765 800L764 799z"/>
<path style="fill:#95ddae; stroke:none;" d="M659 800L660 801L659 800z"/>
<path style="fill:#b3e7c5; stroke:none;" d="M763 800L764 801L763 800z"/>
<path style="fill:#62cc87; stroke:none;" d="M660 801L661 802L660 801z"/>
<path style="fill:#95ddae; stroke:none;" d="M762 801L763 802L762 801z"/>
<path style="fill:#62cc87; stroke:none;" d="M661 802L662 803L661 802M761 802L762 803L761 802M662 803L663 804L662 803M760 803L761 804L760 803M663 804L664 805L663 804M759 804L760 805L759 804M664 805L665 806L664 805M758 805L759 806L758 805M665 806L666 807L665 806M757 806L758 807L757 806z"/>
<path style="fill:#b3e7c5; stroke:none;" d="M667 807L668 808L667 807z"/>
<path style="fill:#62cc87; stroke:none;" d="M756 807L757 808L756 807z"/>
<path style="fill:#b3e7c5; stroke:none;" d="M668 808L669 809L668 808M754 808L755 809L754 808M669 809L670 810L669 809M753 809L754 810L753 809M670 810L671 811L670 810M752 810L753 811L752 810M671 811L672 812L671 811M751 811L752 812L751 811M672 812L673 813L672 812M750 812L751 813L750 812z"/>
<path style="fill:#95ddae; stroke:none;" d="M673 813L674 814L673 813z"/>
<path style="fill:#b3e7c5; stroke:none;" d="M749 813L750 814L749 813z"/>
<path style="fill:#62cc87; stroke:none;" d="M674 814L675 815L674 814z"/>
<path style="fill:#95ddae; stroke:none;" d="M748 814L749 815L748 814z"/>
<path style="fill:#62cc87; stroke:none;" d="M675 815L676 816L675 815M747 815L748 816L747 815M676 816L677 817L676 816M746 816L747 817L746 816M677 817L678 818L677 817M745 817L746 818L745 817M678 818L679 819L678 818M744 818L745 819L744 818M679 819L680 820L679 819M743 819L744 820L743 819z"/>
<path style="fill:#b3e7c5; stroke:none;" d="M681 820L682 821L681 820z"/>
<path style="fill:#62cc87; stroke:none;" d="M742 820L743 821L742 820z"/>
<path style="fill:#b3e7c5; stroke:none;" d="M682 821L683 822L682 821M740 821L741 822L740 821M683 822L684 823L683 822M739 822L740 823L739 822M684 823L685 824L684 823M738 823L739 824L738 823M685 824L686 825L685 824M737 824L738 825L737 824M686 825L687 826L686 825M736 825L737 826L736 825M687 826L688 827L687 826M735 826L736 827L735 826z"/>
<path style="fill:#62cc87; stroke:none;" d="M688 827L689 828L688 827z"/>
<path style="fill:#95ddae; stroke:none;" d="M734 827L735 828L734 827z"/>
<path style="fill:#62cc87; stroke:none;" d="M689 828L690 829L689 828M733 828L734 829L733 828M690 829L691 830L690 829M732 829L733 830L732 829M691 830L692 831L691 830M731 830L732 831L731 830M692 831L693 832L692 831M730 831L731 832L730 831M693 832L694 833L693 832M729 832L730 833L729 832M694 833L695 834L694 833z"/>
<path style="fill:#b3e7c5; stroke:none;" d="M695 833L696 834L695 833z"/>
<path style="fill:#62cc87; stroke:none;" d="M728 833L729 834L728 833z"/>
<path style="fill:#b3e7c5; stroke:none;" d="M696 834L697 835L696 834M726 834L727 835L726 834z"/>
<path style="fill:#62cc87; stroke:none;" d="M727 834L728 835L727 834z"/>
<path style="fill:#b3e7c5; stroke:none;" d="M697 835L698 836L697 835M725 835L726 836L725 835M698 836L699 837L698 836M724 836L725 837L724 836M699 837L700 838L699 837M723 837L724 838L723 837M700 838L701 839L700 838M722 838L723 839L722 838M701 839L702 840L701 839M721 839L722 840L721 839z"/>
<path style="fill:#95ddae; stroke:none;" d="M702 840L703 841L702 840z"/>
<path style="fill:#b3e7c5; stroke:none;" d="M720 840L721 841L720 840z"/>
<path style="fill:#62cc87; stroke:none;" d="M703 841L704 842L703 841z"/>
<path style="fill:#95ddae; stroke:none;" d="M719 841L720 842L719 841z"/>
<path style="fill:#62cc87; stroke:none;" d="M704 842L705 843L704 842M718 842L719 843L718 842M705 843L706 844L705 843M717 843L718 844L717 843M707 844L708 845L707 844z"/>
<path style="fill:#b3e7c5; stroke:none;" d="M708 844L709 845L708 844M714 844L715 845L714 844z"/>
<path style="fill:#62cc87; stroke:none;" d="M715 844L716 845L715 844M710 845L710 846L713 846L710 845z"/>
</svg>
